<svg width="34" height="30" viewBox="0 0 34 30" fill="none" xmlns="http://www.w3.org/2000/svg">
<path d="M14.9764 27.0946L14.975 27.0934C10.6446 23.2582 7.13192 20.141 4.69011 17.2233C2.25851 14.3178 1 11.737 1 8.99183C1 4.51563 4.57957 1 9.20652 1C11.8255 1 14.3492 2.19585 15.988 4.06065L16.7391 4.91546L17.4903 4.06065C19.129 2.19585 21.6528 1 24.2717 1C28.8987 1 32.4783 4.51563 32.4783 8.99183C32.4783 11.737 31.2198 14.3178 28.7881 17.2233C26.3463 20.141 22.8336 23.2582 18.5033 27.0933L18.5018 27.0946L16.7391 28.6619L14.9764 27.0946Z" stroke="white" stroke-width="2"/>
</svg>
