<svg width="741" height="640" viewBox="0 0 741 640" fill="none" xmlns="http://www.w3.org/2000/svg">
<mask id="mask0_53_1603" style="mask-type:luminance" maskUnits="userSpaceOnUse" x="0" y="0" width="741" height="640">
<rect x="0.551025" y="0.716187" width="739.56" height="639.281" fill="white"/>
</mask>
<g mask="url(#mask0_53_1603)">
<ellipse cx="377.999" cy="320.357" rx="311.697" ry="319.641" fill="#F1F0FF"/>
<rect x="359.854" y="181.005" width="191.13" height="303.514" fill="white"/>
<path d="M321.547 366.256H517.517" stroke="black"/>
<path d="M321.547 386.104H517.517" stroke="black"/>
<path d="M321.547 405.952H517.517" stroke="black"/>
<path d="M321.547 425.8H517.517" stroke="black"/>
<ellipse cx="455.42" cy="269.495" rx="50.0011" ry="51.2754" fill="#F2F2F2"/>
<rect opacity="0.7" x="517.517" y="288.931" width="79.0323" height="75.2587" fill="#98B9F2"/>
<path d="M537.924 322.304L544.203 319.844V320.811L539.068 322.75L544.203 324.694V325.661L537.924 323.195V322.304ZM549.762 317.668H550.578L548.075 325.559H547.259L549.762 317.668ZM559.811 323.206L553.532 325.661V324.694L558.662 322.75L553.532 320.811V319.844L559.811 322.304V323.206Z" fill="white"/>
<rect x="29.6084" y="31.7295" width="426.617" height="287.801" stroke="black"/>
<path d="M29.6084 47.0298H456.226" stroke="black"/>
<rect x="60.6567" y="72.6658" width="128.228" height="131.496" stroke="black"/>
<path d="M213.481 84.2455H409.451" stroke="black"/>
<path d="M213.481 104.093H409.451" stroke="black"/>
<path d="M213.481 123.942H409.451" stroke="black"/>
<path d="M213.481 143.79H409.451" stroke="black"/>
<path opacity="0.44" fill-rule="evenodd" clip-rule="evenodd" d="M124.771 107.401L89.8506 169.42H159.691L124.771 107.401Z" fill="#918EF4"/>
<ellipse cx="38.8828" cy="39.5857" rx="3.62869" ry="3.72117" fill="#AB8DE5"/>
<ellipse cx="51.3824" cy="39.5857" rx="3.62869" ry="3.72117" fill="#73E5E2"/>
<ellipse cx="63.8816" cy="39.5857" rx="3.62869" ry="3.72117" fill="#50B89D"/>
<path fill-rule="evenodd" clip-rule="evenodd" d="M217.512 266.394L229.609 255.437H217.271L217.512 266.394Z" fill="#AB8DE5"/>
<path fill-rule="evenodd" clip-rule="evenodd" d="M205.416 235.587C205.416 229.764 207.424 224.793 211.439 220.676C215.455 216.558 220.302 214.499 225.981 214.499H278.401C284.079 214.499 288.927 216.558 292.942 220.676C296.957 224.793 298.965 229.764 298.965 235.587C298.965 241.411 296.957 246.381 292.942 250.499C288.927 254.617 284.079 256.676 278.401 256.676H225.981C220.302 256.676 215.455 254.617 211.439 250.499C207.424 246.381 205.416 241.411 205.416 235.587Z" fill="#AB8DE5"/>
<ellipse cx="239.691" cy="235.587" rx="3.62869" ry="3.72117" fill="white"/>
<ellipse cx="252.191" cy="235.587" rx="3.62868" ry="3.72117" fill="white"/>
<ellipse cx="264.69" cy="235.587" rx="3.62868" ry="3.72117" fill="white"/>
<path fill-rule="evenodd" clip-rule="evenodd" d="M600.582 142.341L588.484 131.384H600.823L600.582 142.341Z" fill="#98B9F2"/>
<path fill-rule="evenodd" clip-rule="evenodd" d="M612.679 111.536C612.679 117.359 610.671 122.33 606.656 126.448C602.64 130.565 597.793 132.624 592.114 132.624H539.694C534.015 132.624 529.168 130.565 525.153 126.448C521.138 122.33 519.13 117.359 519.13 111.536C519.13 105.712 521.138 100.742 525.153 96.624C529.168 92.5063 534.015 90.4474 539.694 90.4474L592.114 90.4474C597.793 90.4474 602.64 92.5063 606.656 96.624C610.671 100.742 612.679 105.712 612.679 111.536Z" fill="#98B9F2"/>
<ellipse cx="578.404" cy="111.536" rx="3.6287" ry="3.72117" fill="white"/>
<ellipse cx="565.903" cy="111.536" rx="3.6287" ry="3.72117" fill="white"/>
<ellipse cx="553.403" cy="111.536" rx="3.6287" ry="3.72117" fill="white"/>
<ellipse cx="594.13" cy="35.8647" rx="3.6287" ry="3.72117" fill="#918EF4"/>
<ellipse cx="601.791" cy="51.1637" rx="3.6287" ry="3.72117" fill="#918EF4"/>
<ellipse cx="518.322" cy="202.095" rx="5.64578" ry="5.78968" fill="#918EF4"/>
<ellipse cx="551.388" cy="221.943" rx="5.64578" ry="5.78968" fill="#918EF4"/>
<ellipse cx="43.3191" cy="228.559" rx="5.64579" ry="5.78968" fill="#F98B67"/>
<path fill-rule="evenodd" clip-rule="evenodd" d="M531.387 492.997V492.17L529.452 489.69L524.975 484.115L520.217 478.211C520.217 478.211 515.636 474.961 514.46 474.398C510.259 472.171 505.623 470.945 500.896 470.813C497.792 470.813 486.185 471.293 486.163 473.294C486.163 476.262 502.418 487.503 514.332 492.961C519.564 492.997 531.387 492.997 531.387 492.997Z" fill="#1F161E"/>
<path fill-rule="evenodd" clip-rule="evenodd" d="M528.927 492.997C512.386 479.946 478.62 408.765 487.281 382.383C505.716 392.018 525.943 425.24 535.484 453.292C535.997 455.118 536.409 456.974 536.717 458.848L540.589 477.042L541.524 493.029L528.927 492.997Z" fill="#6F9CEB"/>
<path fill-rule="evenodd" clip-rule="evenodd" d="M540.219 492.997C534.638 488.349 532.856 474.588 532.807 469.453C532.718 459.868 534.153 452.804 542.147 442.261C550.14 431.718 548.009 414.225 558.623 402.423C569.236 390.622 576.268 387.331 588.862 387.331C601.456 387.331 605.467 408.27 605.394 413.538C605.248 434.792 592.192 437.803 584.224 447.941C578.442 455.301 577.991 461.322 576.24 464.764C566.854 483.305 559.224 490.278 553.578 492.999" fill="#918EF4"/>
<path d="M543.299 491.457C543.459 455.209 580.704 400.758 588.669 392.604" stroke="white" stroke-width="0.4" stroke-linecap="round" stroke-linejoin="round"/>
<path d="M545.305 474.984C541.184 470.378 537.439 457.32 537.999 453.928" stroke="white" stroke-width="0.4" stroke-linecap="round" stroke-linejoin="round"/>
<path d="M534.751 489.869C528.911 479.257 501.209 427.519 490.878 389.411" stroke="white" stroke-width="0.4" stroke-linecap="round" stroke-linejoin="round"/>
<path fill-rule="evenodd" clip-rule="evenodd" d="M553.613 492.995H570.968L556.461 548.406H517.637L503.355 492.995H553.613" fill="#B37361"/>
<path d="M491.838 474.412C500.298 475.007 510.943 475.406 518.452 480.656" stroke="white" stroke-width="0.4" stroke-linecap="round" stroke-linejoin="round"/>
<path fill-rule="evenodd" clip-rule="evenodd" d="M625.942 266.188C623.902 276.171 609.08 399.991 613.925 429.565C618.77 459.139 697.797 521.106 701.257 522.191C705.289 519.156 711.22 509.206 711.22 509.206C711.22 509.206 653.276 440.325 652.171 437.563C651.067 434.801 664.865 275.287 664.865 275.287L625.942 266.188Z" fill="#7472C1"/>
<path fill-rule="evenodd" clip-rule="evenodd" d="M720.309 288.723L661.187 536.009H641.277L661.455 278.038L720.309 288.723Z" fill="#AB8DE5"/>
<path fill-rule="evenodd" clip-rule="evenodd" d="M678.322 147.139C686.483 147.139 729.057 148.554 736.75 163.919C744.443 179.284 737.194 250.316 732.412 253.062C729.832 254.543 729.129 253.103 728.379 256.109C727.629 259.115 720.314 288.718 720.314 288.718C715.668 288.85 647.95 278.388 625.958 266.158C626.087 262.752 627.152 253.919 627.152 253.239C624.233 254.464 620.7 254.72 619.732 253.239C611.151 239.916 623.941 170.456 633.119 156.478C637.019 150.49 665.213 147.181 678.322 147.139Z" fill="#6F9CEB"/>
<path fill-rule="evenodd" clip-rule="evenodd" d="M706.35 254.982C708.35 254.982 725.569 267.387 724.092 273.482C725.301 268.587 729.108 253.46 729.108 253.46C727.472 253.783 707.818 255.007 706.35 254.982Z" fill="#1F161E"/>
<path fill-rule="evenodd" clip-rule="evenodd" d="M688.857 155.245C688.857 157.934 668.123 157.934 668.123 155.245V127.953H688.857V155.245Z" fill="#F8CDBA"/>
<path fill-rule="evenodd" clip-rule="evenodd" d="M676.962 134.411C678.575 134.411 688.857 139.072 688.857 141.672V127.953C686.293 127.953 676.962 134.411 676.962 134.411Z" fill="#1F161E"/>
<ellipse cx="674.124" cy="115.721" rx="20.1693" ry="20.6833" fill="#F8CDBA"/>
<path fill-rule="evenodd" clip-rule="evenodd" d="M667.301 85.4857C656.947 85.4857 650.495 92.1519 650.495 100.695C650.495 107.798 652.173 111.819 654.148 112.835C655.398 105.938 658.116 102.745 660.366 101.372C662.114 102.745 665.108 106.07 669.105 107.096C673.103 108.121 683.517 107.922 691.928 114.192C694.677 111.629 697.42 108.295 697.42 104.368C697.42 100.44 695.726 95.511 685.767 92.6645C679.189 90.786 678.27 85.4857 667.301 85.4857Z" fill="#1F161E"/>
<ellipse cx="655.277" cy="119.98" rx="3.53255" ry="1.88568" fill="#FA9E9F"/>
<ellipse cx="677.495" cy="119.98" rx="3.53255" ry="1.88568" fill="#FA9E9F"/>
<path d="M663.907 116.069C663.246 117.037 659.875 121.097 663.432 122.735" stroke="#1F161E" stroke-linecap="round"/>
<path d="M670.551 127.473C672.011 127.104 673.284 126.186 674.115 124.9" stroke="#1F161E" stroke-linecap="round"/>
<ellipse cx="692.769" cy="118.103" rx="4.66171" ry="4.78052" fill="#F8CDBA"/>
<path d="M706.817 187.838C706.453 192.403 705.034 214.963 705.567 217.933C698.801 220.348 636.849 250.475 626.131 253.783" stroke="#1F161E" stroke-linecap="round"/>
<path d="M634.865 180.716C633.437 185.826 628.632 209.025 632.011 219.792" stroke="#1F161E" stroke-linecap="round"/>
<path d="M650.68 243.23C653.907 245.56 684.826 259.588 727.577 254.295" stroke="#1F161E" stroke-linecap="round"/>
<path fill-rule="evenodd" clip-rule="evenodd" d="M647.723 219.801C649.796 220.14 643.037 214.603 639.207 216.666C635.377 218.729 630.216 228.046 631.272 230.204C631.56 230.998 632.183 231.615 632.967 231.882C633.751 232.149 634.61 232.037 635.304 231.577C636.342 230.891 644.108 219.204 647.723 219.801Z" fill="#F8CDBA"/>
<path fill-rule="evenodd" clip-rule="evenodd" d="M710.559 510.222C711.664 511.049 721.463 517.848 721.543 522.132C721.623 526.415 712.414 540.616 710.559 541.021C708.705 541.426 707.381 539.821 707.381 536.952C707.381 534.082 710.877 529.054 710.414 526.821C709.951 524.587 705.422 520.502 703.099 520.429" fill="#EBEBEB" fill-opacity="0.25098"/>
<path fill-rule="evenodd" clip-rule="evenodd" d="M659.294 536.009C659.294 537.981 660.408 550.333 658.181 551.482C655.954 552.63 631.39 553.31 630.277 552.168C629.164 551.026 628.487 548.621 629.471 547.934C630.455 547.248 639.959 545.296 641.245 544.387C643.142 542.055 644.017 539.024 643.664 536.009" fill="#EBEBEB" fill-opacity="0.25098"/>
<rect x="21.5278" y="444.276" width="155.953" height="81.1218" fill="#B37361"/>
<path fill-rule="evenodd" clip-rule="evenodd" d="M254.313 406.257C254.991 410.393 266.491 504.927 268.354 506.49C270.217 508.054 289.998 511.518 291.692 508.921C292.031 504.786 292.498 438.857 293.547 432.96" fill="#1F161E"/>
<path fill-rule="evenodd" clip-rule="evenodd" d="M31.8109 386.533C23.8351 382.505 40.4649 462.346 84.2311 462.346C127.997 462.346 201.667 393.977 213.595 393.977C239.926 393.977 302.257 446.989 307.144 446.989C310.886 443.152 318.369 436.437 318.369 433.757C318.369 431.078 258.691 330.38 214.037 330.38C196.724 330.404 49.8198 395.655 31.8109 386.533Z" fill="#7472C1"/>
<path fill-rule="evenodd" clip-rule="evenodd" d="M56.4409 387.893C65.191 385.859 76.0788 380.591 85.7151 375.206C59.4963 383.989 38.0126 389.679 31.8109 386.537C27.5845 384.404 30.2623 405.773 40.201 426.358C38.3989 422.375 35.8347 392.719 56.4409 387.893Z" fill="#1F161E"/>
<path fill-rule="evenodd" clip-rule="evenodd" d="M75.7292 247.826C82.6247 248.016 118.52 246.93 128.359 256.543C135.657 263.672 158.352 324.978 161.851 346.505C146.609 354.453 36.6648 408.432 2.64852 384.697C1.89866 366.255 5.39101 292.941 27.6438 254.492C35.7786 248.934 69.101 247.652 75.7292 247.826Z" fill="white"/>
<path fill-rule="evenodd" clip-rule="evenodd" d="M89.7143 230.285H68.7393V253.392C68.7393 259.182 89.7143 259.128 89.7143 253.392V230.285Z" fill="#F8CDBA"/>
<path fill-rule="evenodd" clip-rule="evenodd" d="M68.7462 244.236C68.7462 241.673 75.6733 235.231 79.9557 235.453C80.0605 232.599 70.1673 228.498 70.1673 228.498L68.7393 232.441L68.7462 244.236Z" fill="#1F161E"/>
<path fill-rule="evenodd" clip-rule="evenodd" d="M111.673 230.285C112.145 228.047 112.383 225.764 112.383 223.474C112.383 206.42 99.3908 192.593 83.3501 192.593C67.3094 192.593 54.3171 206.42 54.3171 223.474C54.3171 225.755 54.5544 228.038 55.025 230.277L111.673 230.285Z" fill="#1F161E"/>
<path fill-rule="evenodd" clip-rule="evenodd" d="M104.021 209.469C100.464 208.915 96.9158 206.045 94.4407 204.169C80.328 214.771 71.2878 214.906 70.3107 214.906C69.3336 214.906 65.3588 220.762 63.5287 221.423L63.3679 221.325C64.8263 229.753 70.8063 236.612 78.8119 239.038C86.8174 241.464 95.4723 239.04 101.164 232.778C106.856 226.516 108.606 217.492 105.683 209.473C105.132 209.543 104.574 209.543 104.023 209.473L104.021 209.469Z" fill="#F8CDBA"/>
<ellipse cx="67.6259" cy="187.662" rx="8.56482" ry="8.78311" fill="#1F161E"/>
<path d="M71.4398 214.44C69.5129 214.527 67.9944 216.154 67.9944 218.132C67.9944 220.11 69.5129 221.737 71.4398 221.825" stroke="#1F161E" stroke-linecap="round"/>
<path d="M98.8926 214.911C99.9413 216.358 102.666 218.898 98.8926 221.584" stroke="#1F161E" stroke-linecap="round"/>
<path d="M87.449 223.52C87.3527 225.416 88.4464 227.163 90.167 227.862" stroke="#1F161E" stroke-linecap="round"/>
<ellipse cx="80.4241" cy="222.007" rx="3.3228" ry="1.76917" fill="#FA9E9F"/>
<ellipse cx="105.126" cy="222.007" rx="3.3228" ry="1.76917" fill="#FA9E9F"/>
<path fill-rule="evenodd" clip-rule="evenodd" d="M127.602 311.73L150.014 305.814C152.168 309.57 162.652 346.462 162.652 346.462L128.057 361.417C128.506 354.428 129.868 322.423 127.602 311.73Z" fill="#F8CDBA"/>
<path d="M49.0209 305.949C48.2552 312.139 47.0423 318.262 45.3923 324.268" stroke="#1F161E" stroke-linecap="round"/>
<path d="M127.602 311.731C127.062 307.356 123.9 282.704 118.513 269.727" stroke="#1F161E" stroke-linecap="round"/>
<path fill-rule="evenodd" clip-rule="evenodd" d="M127.602 311.73L150.014 305.814C152.168 309.57 162.652 346.462 162.652 346.462L128.057 361.417C128.506 354.428 129.868 322.423 127.602 311.73Z" fill="#F8CDBA"/>
<path fill-rule="evenodd" clip-rule="evenodd" d="M307.813 445.036C308.313 445.862 314.99 454.265 317.353 454.357C319.717 454.448 334.064 444.482 333.434 442.347C332.805 440.212 323.805 441.603 322.256 440.85C319.973 439.375 318.064 437.365 316.684 434.987" fill="#1F161E"/>
<path fill-rule="evenodd" clip-rule="evenodd" d="M272.53 507.369C272.355 508.287 271.449 519.113 273.086 520.866C274.722 522.619 291.788 525.663 292.788 523.67C293.788 521.676 286.337 516.276 285.763 514.639C285.13 511.955 285.13 509.154 285.763 506.469" fill="#1F161E"/>
<path fill-rule="evenodd" clip-rule="evenodd" d="M245.764 348.78H169.82L187.9 299.647H263.844L245.764 348.78Z" fill="#969696"/>
<rect x="106.538" y="346.928" width="75.9438" height="1.85162" fill="#969696"/>
<path fill-rule="evenodd" clip-rule="evenodd" d="M45.3923 324.275C43.9328 329.866 36.8432 353.851 39.7308 357.984C42.6183 362.118 114.925 352.749 134.272 346.572C139.2 344.917 142.853 340.585 145.038 340.022C150.85 339.011 156.47 342.656 158.07 348.474C150.352 352.311 38.7956 410.715 2.65208 384.723C-4.1788 379.704 7.80495 318.503 8.3538 315.419C14.4558 316.171 45.3923 324.275 45.3923 324.275Z" fill="#F8CDBA"/>
<path d="M128.635 348.061C130.813 347.523 132.717 347.011 134.281 346.514C139.208 344.86 142.862 340.527 145.046 339.965C150.858 338.953 156.478 342.598 158.079 348.416" stroke="#1F161E" stroke-linecap="round"/>
</g>
</svg>
