<svg width="149" height="150" viewBox="0 0 149 150" fill="none" xmlns="http://www.w3.org/2000/svg">
<path fill-rule="evenodd" clip-rule="evenodd" d="M107.173 78.4019C98.8098 81.7838 89.7822 83.8696 80.3401 84.4101C78.7117 84.5033 77.071 84.5505 75.4193 84.5505C73.7675 84.5505 72.1268 84.5033 70.4984 84.4101C61.0541 83.8695 52.0245 81.7828 43.6595 78.3995C26.1049 71.2994 11.4772 58.4892 2.08594 42.2753C16.7239 17.0031 44.0834 0 75.4193 0C106.755 0 134.115 17.0031 148.753 42.2753C139.36 58.491 124.73 71.3023 107.173 78.4019Z" fill="white"/>
<path d="M43.6583 84.9808C41.636 84.1629 39.6524 83.2692 37.7113 82.3032C31.4029 86.7414 26.0699 92.2691 22.0542 98.5757C28.8798 109.295 39.5112 117.764 52.2699 122.458C58.3496 124.695 64.9123 126.075 71.7765 126.432H78.9294C85.792 126.075 97.8537 132.865 80.3389 150C93.0995 145.306 121.825 109.296 128.652 98.5757C124.647 92.2871 119.333 86.7729 113.048 82.3411C111.13 83.2935 109.17 84.1753 107.172 84.9832C98.8086 88.3651 89.781 90.451 80.3389 90.9914C78.7105 91.0846 77.0698 91.1319 75.4181 91.1319C73.7663 91.1319 72.1256 91.0846 70.4972 90.9914C61.0529 90.4508 52.0233 88.3641 43.6583 84.9808Z" fill="white"/>
<rect x="40.0576" y="31.4608" width="70.8775" height="25.2809" rx="12.6404" fill="#162550"/>
<ellipse cx="95.0422" cy="43.961" rx="4.64079" ry="4.63483" fill="#04FED1"/>
<ellipse cx="75.3527" cy="106.32" rx="4.64079" ry="4.63483" fill="#162550"/>
<ellipse cx="56.7926" cy="43.961" rx="4.64079" ry="4.63483" fill="#04FED1"/>
<ellipse cx="56.7926" cy="106.32" rx="4.64079" ry="4.63483" fill="#162550"/>
<ellipse cx="93.9186" cy="106.32" rx="4.64079" ry="4.63483" fill="#162550"/>
</svg>
